<?xml version="1.0" encoding="UTF-8"?>
<svg xmlns="http://www.w3.org/2000/svg" xmlns:xlink="http://www.w3.org/1999/xlink" width="612" height="792" viewBox="0 0 612 792">
<defs>
<clipPath id="clip-0">
<path clip-rule="nonzero" d="M 86 146 L 154 146 L 154 283 L 86 283 Z M 86 146 "/>
</clipPath>
<clipPath id="clip-1">
<path clip-rule="nonzero" d="M 118.871094 235.984375 C 119.414062 234.167969 120.6875 234.167969 121.410156 235.984375 L 138.84375 279.582031 C 139.566406 281.214844 141.746094 282.667969 143.5625 282.667969 L 151.371094 282.667969 C 153.367188 282.667969 154.273438 281.214844 153.546875 279.582031 L 128.675781 217.636719 C 127.949219 216 127.949219 213.09375 128.675781 211.460938 L 153.546875 149.515625 C 154.273438 147.878906 153.367188 146.425781 151.371094 146.425781 L 143.5625 146.425781 C 141.746094 146.425781 139.566406 147.878906 138.84375 149.515625 L 121.410156 193.113281 C 120.6875 194.929688 119.414062 194.929688 118.871094 193.113281 L 101.257812 149.515625 C 100.53125 147.878906 98.535156 146.425781 96.539062 146.425781 L 88.730469 146.425781 C 86.914062 146.425781 85.824219 147.878906 86.550781 149.515625 L 111.425781 211.460938 C 112.152344 213.09375 112.152344 216 111.425781 217.636719 L 86.550781 279.582031 C 85.824219 281.214844 86.914062 282.667969 88.730469 282.667969 L 96.539062 282.667969 C 98.535156 282.667969 100.53125 281.214844 101.257812 279.582031 Z M 118.871094 235.984375 "/>
</clipPath>
<linearGradient id="linear-pattern-0" gradientUnits="userSpaceOnUse" x1="73.170273" y1="235" x2="135.916566" y2="235" gradientTransform="matrix(1.090892, 0, 0, 1.091447, 6.004626, -43.11511)">
<stop offset="0" stop-color="rgb(27.099609%, 40.79895%, 86.299133%)" stop-opacity="1"/>
<stop offset="0.0625" stop-color="rgb(27.279663%, 40.802002%, 86.228943%)" stop-opacity="1"/>
<stop offset="0.09375" stop-color="rgb(27.561951%, 40.808105%, 86.120605%)" stop-opacity="1"/>
<stop offset="0.125" stop-color="rgb(27.764893%, 40.811157%, 86.042786%)" stop-opacity="1"/>
<stop offset="0.15625" stop-color="rgb(27.96936%, 40.815735%, 85.964966%)" stop-opacity="1"/>
<stop offset="0.1875" stop-color="rgb(28.173828%, 40.818787%, 85.88562%)" stop-opacity="1"/>
<stop offset="0.21875" stop-color="rgb(28.37677%, 40.823364%, 85.8078%)" stop-opacity="1"/>
<stop offset="0.25" stop-color="rgb(28.581238%, 40.826416%, 85.728455%)" stop-opacity="1"/>
<stop offset="0.28125" stop-color="rgb(28.785706%, 40.830994%, 85.650635%)" stop-opacity="1"/>
<stop offset="0.3125" stop-color="rgb(28.988647%, 40.835571%, 85.572815%)" stop-opacity="1"/>
<stop offset="0.34375" stop-color="rgb(29.193115%, 40.838623%, 85.493469%)" stop-opacity="1"/>
<stop offset="0.375" stop-color="rgb(29.397583%, 40.843201%, 85.415649%)" stop-opacity="1"/>
<stop offset="0.40625" stop-color="rgb(29.602051%, 40.846252%, 85.33783%)" stop-opacity="1"/>
<stop offset="0.4375" stop-color="rgb(29.804993%, 40.85083%, 85.258484%)" stop-opacity="1"/>
<stop offset="0.46875" stop-color="rgb(30.00946%, 40.853882%, 85.180664%)" stop-opacity="1"/>
<stop offset="0.5" stop-color="rgb(30.213928%, 40.858459%, 85.101318%)" stop-opacity="1"/>
<stop offset="0.53125" stop-color="rgb(30.41687%, 40.861511%, 85.023499%)" stop-opacity="1"/>
<stop offset="0.5625" stop-color="rgb(30.621338%, 40.866089%, 84.945679%)" stop-opacity="1"/>
<stop offset="0.59375" stop-color="rgb(30.825806%, 40.870667%, 84.866333%)" stop-opacity="1"/>
<stop offset="0.625" stop-color="rgb(31.028748%, 40.873718%, 84.788513%)" stop-opacity="1"/>
<stop offset="0.65625" stop-color="rgb(31.233215%, 40.878296%, 84.710693%)" stop-opacity="1"/>
<stop offset="0.6875" stop-color="rgb(31.437683%, 40.881348%, 84.631348%)" stop-opacity="1"/>
<stop offset="0.71875" stop-color="rgb(31.640625%, 40.885925%, 84.553528%)" stop-opacity="1"/>
<stop offset="0.75" stop-color="rgb(31.845093%, 40.888977%, 84.475708%)" stop-opacity="1"/>
<stop offset="0.78125" stop-color="rgb(32.049561%, 40.893555%, 84.396362%)" stop-opacity="1"/>
<stop offset="0.8125" stop-color="rgb(32.254028%, 40.896606%, 84.318542%)" stop-opacity="1"/>
<stop offset="0.84375" stop-color="rgb(32.45697%, 40.901184%, 84.239197%)" stop-opacity="1"/>
<stop offset="0.875" stop-color="rgb(32.661438%, 40.905762%, 84.161377%)" stop-opacity="1"/>
<stop offset="0.90625" stop-color="rgb(32.865906%, 40.908813%, 84.083557%)" stop-opacity="1"/>
<stop offset="0.9375" stop-color="rgb(33.068848%, 40.913391%, 84.004211%)" stop-opacity="1"/>
<stop offset="0.96875" stop-color="rgb(33.273315%, 40.916443%, 83.926392%)" stop-opacity="1"/>
<stop offset="1" stop-color="rgb(33.477783%, 40.921021%, 83.848572%)" stop-opacity="1"/>
</linearGradient>
<clipPath id="clip-2">
<path clip-rule="nonzero" d="M 162 146 L 226 146 L 226 283 L 162 283 Z M 162 146 "/>
</clipPath>
<clipPath id="clip-3">
<path clip-rule="nonzero" d="M 173.15625 146.425781 C 171.34375 146.425781 168.800781 147.515625 167.347656 148.789062 L 165.351562 150.785156 C 164.078125 152.058594 162.988281 154.78125 162.988281 156.597656 L 162.988281 272.496094 C 162.988281 274.3125 164.078125 276.855469 165.351562 278.308594 L 167.347656 280.308594 C 168.800781 281.578125 171.34375 282.667969 173.15625 282.667969 L 215.460938 282.667969 C 217.277344 282.667969 219.820312 281.578125 221.273438 280.308594 L 223.269531 278.308594 C 224.539062 276.855469 225.628906 274.3125 225.628906 272.496094 L 225.628906 263.050781 C 225.628906 261.234375 224.175781 259.78125 222.179688 259.78125 L 215.460938 259.78125 C 213.644531 259.78125 212.011719 261.234375 212.011719 263.050781 L 212.011719 265.59375 C 212.011719 267.589844 210.558594 269.042969 208.5625 269.042969 L 180.058594 269.042969 C 178.058594 269.042969 176.605469 267.589844 176.605469 265.59375 L 176.605469 163.503906 C 176.605469 161.503906 178.058594 160.050781 180.058594 160.050781 L 208.5625 160.050781 C 210.558594 160.050781 212.011719 161.503906 212.011719 163.503906 L 212.011719 165.5 C 212.011719 167.316406 213.644531 168.769531 215.460938 168.769531 L 222.179688 168.769531 C 224.175781 168.769531 225.628906 167.316406 225.628906 165.5 L 225.628906 156.597656 C 225.628906 154.78125 224.539062 152.058594 223.269531 150.785156 L 221.273438 148.789062 C 219.820312 147.515625 217.277344 146.425781 215.460938 146.425781 Z M 173.15625 146.425781 "/>
</clipPath>
<linearGradient id="linear-pattern-1" gradientUnits="userSpaceOnUse" x1="143.905503" y1="235" x2="201.325852" y2="235" gradientTransform="matrix(1.090892, 0, 0, 1.091447, 6.004626, -43.11511)">
<stop offset="0" stop-color="rgb(34.410095%, 40.939331%, 83.48999%)" stop-opacity="1"/>
<stop offset="0.0625" stop-color="rgb(34.596252%, 40.942383%, 83.418274%)" stop-opacity="1"/>
<stop offset="0.125" stop-color="rgb(34.970093%, 40.948486%, 83.274841%)" stop-opacity="1"/>
<stop offset="0.1875" stop-color="rgb(35.343933%, 40.956116%, 83.131409%)" stop-opacity="1"/>
<stop offset="0.25" stop-color="rgb(35.716248%, 40.963745%, 82.987976%)" stop-opacity="1"/>
<stop offset="0.3125" stop-color="rgb(36.090088%, 40.969849%, 82.844543%)" stop-opacity="1"/>
<stop offset="0.375" stop-color="rgb(36.463928%, 40.977478%, 82.701111%)" stop-opacity="1"/>
<stop offset="0.4375" stop-color="rgb(36.837769%, 40.985107%, 82.557678%)" stop-opacity="1"/>
<stop offset="0.5" stop-color="rgb(37.210083%, 40.991211%, 82.414246%)" stop-opacity="1"/>
<stop offset="0.5625" stop-color="rgb(37.583923%, 40.99884%, 82.270813%)" stop-opacity="1"/>
<stop offset="0.625" stop-color="rgb(37.957764%, 41.00647%, 82.12738%)" stop-opacity="1"/>
<stop offset="0.6875" stop-color="rgb(38.330078%, 41.012573%, 81.983948%)" stop-opacity="1"/>
<stop offset="0.75" stop-color="rgb(38.703918%, 41.020203%, 81.840515%)" stop-opacity="1"/>
<stop offset="0.8125" stop-color="rgb(39.077759%, 41.027832%, 81.697083%)" stop-opacity="1"/>
<stop offset="0.875" stop-color="rgb(39.450073%, 41.033936%, 81.55365%)" stop-opacity="1"/>
<stop offset="0.9375" stop-color="rgb(39.823914%, 41.041565%, 81.410217%)" stop-opacity="1"/>
<stop offset="1" stop-color="rgb(40.197754%, 41.049194%, 81.266785%)" stop-opacity="1"/>
</linearGradient>
<clipPath id="clip-4">
<path clip-rule="nonzero" d="M 234 146 L 297 146 L 297 283 L 234 283 Z M 234 146 "/>
</clipPath>
<clipPath id="clip-5">
<path clip-rule="nonzero" d="M 283.546875 231.078125 C 283.546875 233.078125 281.914062 234.53125 280.097656 234.53125 L 251.59375 234.53125 C 249.777344 234.53125 248.324219 233.078125 248.324219 231.078125 L 248.324219 149.878906 C 248.324219 147.878906 246.691406 146.425781 244.875 146.425781 L 238.15625 146.425781 C 236.160156 146.425781 234.707031 147.878906 234.707031 149.878906 L 234.707031 237.980469 C 234.707031 239.796875 235.796875 242.339844 237.066406 243.613281 L 239.066406 245.792969 C 240.335938 247.0625 243.058594 248.152344 244.875 248.152344 L 286.816406 248.152344 C 288.8125 248.152344 291.355469 247.0625 292.625 245.792969 L 294.625 243.613281 C 295.894531 242.339844 296.984375 239.796875 296.984375 237.980469 L 296.984375 149.878906 C 296.984375 147.878906 295.53125 146.425781 293.714844 146.425781 L 286.816406 146.425781 C 285 146.425781 283.546875 147.878906 283.546875 149.878906 Z M 234.707031 279.035156 C 234.707031 280.851562 236.160156 282.488281 238.15625 282.488281 L 293.714844 282.488281 C 295.53125 282.488281 296.984375 280.851562 296.984375 279.035156 L 296.984375 272.3125 C 296.984375 270.316406 295.53125 268.863281 293.714844 268.863281 L 238.15625 268.863281 C 236.160156 268.863281 234.707031 270.316406 234.707031 272.3125 Z M 234.707031 279.035156 "/>
</clipPath>
<linearGradient id="linear-pattern-2" gradientUnits="userSpaceOnUse" x1="209.647642" y1="235" x2="266.735142" y2="235" gradientTransform="matrix(1.090892, 0, 0, 1.091447, 6.004626, -43.11511)">
<stop offset="0" stop-color="rgb(41.25061%, 41.069031%, 80.862427%)" stop-opacity="1"/>
<stop offset="0.0625" stop-color="rgb(41.435242%, 41.072083%, 80.79071%)" stop-opacity="1"/>
<stop offset="0.125" stop-color="rgb(41.80603%, 41.079712%, 80.647278%)" stop-opacity="1"/>
<stop offset="0.1875" stop-color="rgb(42.178345%, 41.087341%, 80.505371%)" stop-opacity="1"/>
<stop offset="0.25" stop-color="rgb(42.549133%, 41.093445%, 80.361938%)" stop-opacity="1"/>
<stop offset="0.3125" stop-color="rgb(42.919922%, 41.101074%, 80.220032%)" stop-opacity="1"/>
<stop offset="0.375" stop-color="rgb(43.29071%, 41.107178%, 80.076599%)" stop-opacity="1"/>
<stop offset="0.4375" stop-color="rgb(43.663025%, 41.114807%, 79.934692%)" stop-opacity="1"/>
<stop offset="0.5" stop-color="rgb(44.033813%, 41.122437%, 79.79126%)" stop-opacity="1"/>
<stop offset="0.5625" stop-color="rgb(44.404602%, 41.12854%, 79.649353%)" stop-opacity="1"/>
<stop offset="0.625" stop-color="rgb(44.775391%, 41.136169%, 79.50592%)" stop-opacity="1"/>
<stop offset="0.6875" stop-color="rgb(45.147705%, 41.143799%, 79.364014%)" stop-opacity="1"/>
<stop offset="0.75" stop-color="rgb(45.518494%, 41.149902%, 79.220581%)" stop-opacity="1"/>
<stop offset="0.8125" stop-color="rgb(45.889282%, 41.157532%, 79.078674%)" stop-opacity="1"/>
<stop offset="0.875" stop-color="rgb(46.261597%, 41.165161%, 78.935242%)" stop-opacity="1"/>
<stop offset="0.9375" stop-color="rgb(46.632385%, 41.171265%, 78.793335%)" stop-opacity="1"/>
<stop offset="1" stop-color="rgb(47.003174%, 41.178894%, 78.649902%)" stop-opacity="1"/>
</linearGradient>
<clipPath id="clip-6">
<path clip-rule="nonzero" d="M 311 146 L 374 146 L 374 283 L 311 283 Z M 311 146 "/>
</clipPath>
<clipPath id="clip-7">
<path clip-rule="nonzero" d="M 356.71875 233.984375 C 358.714844 233.984375 360.167969 235.4375 360.167969 237.253906 L 360.167969 279.21875 C 360.167969 281.214844 361.621094 282.667969 363.617188 282.667969 L 370.335938 282.667969 C 372.332031 282.667969 373.785156 281.214844 373.785156 279.21875 L 373.785156 230.535156 C 373.785156 228.71875 372.695312 225.992188 371.425781 224.71875 L 369.429688 222.722656 C 368.15625 221.449219 365.433594 220.359375 363.617188 220.359375 L 363.4375 220.359375 C 361.621094 220.359375 360.347656 218.726562 360.710938 216.910156 L 372.878906 157.871094 C 373.421875 156.054688 372.695312 153.511719 371.605469 152.058594 L 369.066406 149.152344 C 367.976562 147.699219 365.433594 146.425781 363.617188 146.425781 L 321.675781 146.425781 C 319.859375 146.425781 317.320312 147.515625 315.867188 148.789062 L 313.871094 150.785156 C 312.597656 152.058594 311.507812 154.78125 311.507812 156.597656 L 311.507812 216.910156 C 311.507812 218.726562 311.507812 221.8125 311.507812 223.628906 L 311.507812 230.535156 C 311.507812 232.351562 311.507812 235.4375 311.507812 237.253906 L 311.507812 279.21875 C 311.507812 281.214844 312.960938 282.667969 314.957031 282.667969 L 321.675781 282.667969 C 323.492188 282.667969 325.125 281.214844 325.125 279.21875 L 325.125 237.253906 C 325.125 235.4375 326.578125 233.984375 328.574219 233.984375 Z M 325.125 163.503906 C 325.125 161.503906 326.578125 160.050781 328.574219 160.050781 L 355.265625 160.050781 C 357.082031 160.050781 358.351562 161.503906 357.988281 163.320312 L 346.914062 216.910156 C 346.371094 218.726562 344.554688 220.359375 342.738281 220.359375 L 328.574219 220.359375 C 326.578125 220.359375 325.125 218.726562 325.125 216.910156 Z M 325.125 163.503906 "/>
</clipPath>
<linearGradient id="linear-pattern-3" gradientUnits="userSpaceOnUse" x1="280.050022" y1="235" x2="337.137513" y2="235" gradientTransform="matrix(1.090892, 0, 0, 1.091447, 6.004626, -43.11511)">
<stop offset="0" stop-color="rgb(48.574829%, 41.209412%, 78.04718%)" stop-opacity="1"/>
<stop offset="0.0625" stop-color="rgb(48.75946%, 41.212463%, 77.975464%)" stop-opacity="1"/>
<stop offset="0.125" stop-color="rgb(49.130249%, 41.220093%, 77.833557%)" stop-opacity="1"/>
<stop offset="0.1875" stop-color="rgb(49.502563%, 41.226196%, 77.690125%)" stop-opacity="1"/>
<stop offset="0.25" stop-color="rgb(49.873352%, 41.233826%, 77.548218%)" stop-opacity="1"/>
<stop offset="0.3125" stop-color="rgb(50.244141%, 41.239929%, 77.404785%)" stop-opacity="1"/>
<stop offset="0.375" stop-color="rgb(50.614929%, 41.247559%, 77.262878%)" stop-opacity="1"/>
<stop offset="0.4375" stop-color="rgb(50.987244%, 41.255188%, 77.119446%)" stop-opacity="1"/>
<stop offset="0.5" stop-color="rgb(51.358032%, 41.261292%, 76.977539%)" stop-opacity="1"/>
<stop offset="0.5625" stop-color="rgb(51.728821%, 41.268921%, 76.834106%)" stop-opacity="1"/>
<stop offset="0.625" stop-color="rgb(52.101135%, 41.27655%, 76.6922%)" stop-opacity="1"/>
<stop offset="0.6875" stop-color="rgb(52.471924%, 41.282654%, 76.548767%)" stop-opacity="1"/>
<stop offset="0.75" stop-color="rgb(52.842712%, 41.290283%, 76.40686%)" stop-opacity="1"/>
<stop offset="0.8125" stop-color="rgb(53.213501%, 41.297913%, 76.263428%)" stop-opacity="1"/>
<stop offset="0.875" stop-color="rgb(53.585815%, 41.304016%, 76.121521%)" stop-opacity="1"/>
<stop offset="0.9375" stop-color="rgb(53.956604%, 41.311646%, 75.978088%)" stop-opacity="1"/>
<stop offset="1" stop-color="rgb(54.327393%, 41.319275%, 75.836182%)" stop-opacity="1"/>
</linearGradient>
<clipPath id="clip-8">
<path clip-rule="nonzero" d="M 384 144 L 526 144 L 526 283 L 384 283 Z M 384 144 "/>
</clipPath>
<clipPath id="clip-9">
<path clip-rule="nonzero" d="M 436.414062 279.582031 C 435.6875 281.214844 433.691406 282.667969 431.695312 282.667969 L 423.886719 282.667969 C 422.070312 282.667969 420.980469 281.214844 421.707031 279.582031 L 446.582031 217.636719 C 447.308594 216 447.308594 213.09375 446.582031 211.460938 L 421.707031 149.515625 C 420.980469 147.878906 422.070312 146.425781 423.886719 146.425781 L 431.695312 146.425781 C 433.691406 146.425781 435.6875 147.878906 436.414062 149.515625 L 454.027344 193.113281 C 454.570312 194.929688 455.84375 194.929688 456.570312 193.113281 L 474 149.515625 C 474.726562 147.878906 476.902344 146.425781 478.71875 146.425781 L 486.527344 146.425781 C 488.523438 146.425781 489.433594 147.878906 488.707031 149.515625 L 463.832031 211.460938 C 463.105469 213.09375 463.105469 216 463.832031 217.636719 L 488.707031 279.582031 C 489.433594 281.214844 488.523438 282.667969 486.527344 282.667969 L 478.71875 282.667969 C 476.902344 282.667969 474.726562 281.214844 474 279.582031 L 456.570312 235.984375 C 455.84375 234.167969 454.570312 234.167969 454.027344 235.984375 Z M 405.445312 164.71875 C 409.605469 160.554688 414.164062 156.992188 419.121094 154.03125 L 420.609375 157.738281 L 421.167969 159.128906 C 416.875 161.773438 412.910156 164.914062 409.273438 168.554688 C 403.273438 174.554688 398.628906 181.449219 395.339844 189.230469 C 391.933594 197.285156 390.234375 205.722656 390.234375 214.546875 C 390.234375 223.371094 391.933594 231.808594 395.339844 239.867188 C 398.628906 247.648438 403.273438 254.539062 409.273438 260.542969 C 412.910156 264.179688 416.875 267.324219 421.167969 269.964844 L 419.121094 275.0625 C 414.164062 272.101562 409.605469 268.539062 405.445312 264.375 C 398.945312 257.875 393.914062 250.40625 390.351562 241.976562 C 386.660156 233.246094 384.816406 224.105469 384.816406 214.546875 C 384.816406 204.992188 386.660156 195.847656 390.351562 187.117188 C 393.914062 178.6875 398.945312 171.222656 405.445312 164.71875 Z M 455.246094 144.082031 C 460.804688 144.082031 466.226562 144.707031 471.507812 145.957031 L 471.046875 146.523438 L 470.589844 147.214844 L 470.378906 147.621094 L 470.207031 147.996094 L 469.023438 150.953125 C 464.539062 149.984375 459.945312 149.5 455.246094 149.5 C 450.523438 149.5 445.910156 149.992188 441.40625 150.96875 L 440.203125 147.984375 L 439.847656 147.296875 L 439.113281 146.15625 L 438.949219 145.964844 C 444.242188 144.710938 449.671875 144.082031 455.246094 144.082031 Z M 505.046875 164.71875 C 511.546875 171.222656 516.574219 178.6875 520.140625 187.117188 C 523.832031 195.847656 525.675781 204.992188 525.675781 214.546875 C 525.675781 224.105469 523.832031 233.246094 520.140625 241.976562 C 516.574219 250.40625 511.546875 257.875 505.046875 264.375 C 500.867188 268.558594 496.289062 272.132812 491.308594 275.101562 L 490.972656 274.265625 L 489.449219 270.472656 L 489.261719 270.003906 C 493.578125 267.351562 497.5625 264.199219 501.214844 260.542969 C 507.214844 254.539062 511.859375 247.648438 515.152344 239.867188 C 518.554688 231.808594 520.257812 223.371094 520.257812 214.546875 C 520.257812 205.722656 518.554688 197.285156 515.152344 189.230469 C 511.859375 181.449219 507.214844 174.554688 501.214844 168.554688 C 497.5625 164.898438 493.578125 161.742188 489.261719 159.09375 L 491.308594 153.996094 C 496.289062 156.964844 500.867188 160.539062 505.046875 164.71875 Z M 505.046875 164.71875 "/>
</clipPath>
<linearGradient id="linear-pattern-4" gradientUnits="userSpaceOnUse" x1="347.247993" y1="235" x2="476.372534" y2="235" gradientTransform="matrix(1.090892, 0, 0, 1.091447, 6.004626, -43.11511)">
<stop offset="0" stop-color="rgb(55.56488%, 41.342163%, 75.361633%)" stop-opacity="1"/>
<stop offset="0.015625" stop-color="rgb(55.670166%, 41.343689%, 75.320435%)" stop-opacity="1"/>
<stop offset="0.03125" stop-color="rgb(55.880737%, 41.348267%, 75.239563%)" stop-opacity="1"/>
<stop offset="0.046875" stop-color="rgb(56.089783%, 41.352844%, 75.158691%)" stop-opacity="1"/>
<stop offset="0.0625" stop-color="rgb(56.300354%, 41.355896%, 75.07782%)" stop-opacity="1"/>
<stop offset="0.078125" stop-color="rgb(56.509399%, 41.360474%, 74.996948%)" stop-opacity="1"/>
<stop offset="0.09375" stop-color="rgb(56.719971%, 41.365051%, 74.916077%)" stop-opacity="1"/>
<stop offset="0.109375" stop-color="rgb(56.929016%, 41.368103%, 74.836731%)" stop-opacity="1"/>
<stop offset="0.125" stop-color="rgb(57.139587%, 41.372681%, 74.755859%)" stop-opacity="1"/>
<stop offset="0.140625" stop-color="rgb(57.350159%, 41.375732%, 74.674988%)" stop-opacity="1"/>
<stop offset="0.15625" stop-color="rgb(57.559204%, 41.38031%, 74.594116%)" stop-opacity="1"/>
<stop offset="0.171875" stop-color="rgb(57.769775%, 41.384888%, 74.513245%)" stop-opacity="1"/>
<stop offset="0.1875" stop-color="rgb(57.978821%, 41.387939%, 74.432373%)" stop-opacity="1"/>
<stop offset="0.203125" stop-color="rgb(58.189392%, 41.392517%, 74.351501%)" stop-opacity="1"/>
<stop offset="0.21875" stop-color="rgb(58.398438%, 41.397095%, 74.272156%)" stop-opacity="1"/>
<stop offset="0.234375" stop-color="rgb(58.609009%, 41.400146%, 74.191284%)" stop-opacity="1"/>
<stop offset="0.25" stop-color="rgb(58.818054%, 41.404724%, 74.110413%)" stop-opacity="1"/>
<stop offset="0.265625" stop-color="rgb(59.028625%, 41.407776%, 74.029541%)" stop-opacity="1"/>
<stop offset="0.28125" stop-color="rgb(59.239197%, 41.412354%, 73.948669%)" stop-opacity="1"/>
<stop offset="0.296875" stop-color="rgb(59.448242%, 41.416931%, 73.867798%)" stop-opacity="1"/>
<stop offset="0.3125" stop-color="rgb(59.658813%, 41.419983%, 73.786926%)" stop-opacity="1"/>
<stop offset="0.328125" stop-color="rgb(59.867859%, 41.424561%, 73.707581%)" stop-opacity="1"/>
<stop offset="0.34375" stop-color="rgb(60.07843%, 41.429138%, 73.626709%)" stop-opacity="1"/>
<stop offset="0.359375" stop-color="rgb(60.287476%, 41.43219%, 73.545837%)" stop-opacity="1"/>
<stop offset="0.375" stop-color="rgb(60.498047%, 41.436768%, 73.464966%)" stop-opacity="1"/>
<stop offset="0.390625" stop-color="rgb(60.707092%, 41.439819%, 73.384094%)" stop-opacity="1"/>
<stop offset="0.40625" stop-color="rgb(60.917664%, 41.444397%, 73.303223%)" stop-opacity="1"/>
<stop offset="0.421875" stop-color="rgb(61.128235%, 41.448975%, 73.222351%)" stop-opacity="1"/>
<stop offset="0.4375" stop-color="rgb(61.33728%, 41.452026%, 73.143005%)" stop-opacity="1"/>
<stop offset="0.453125" stop-color="rgb(61.547852%, 41.456604%, 73.062134%)" stop-opacity="1"/>
<stop offset="0.46875" stop-color="rgb(61.756897%, 41.461182%, 72.981262%)" stop-opacity="1"/>
<stop offset="0.484375" stop-color="rgb(61.967468%, 41.464233%, 72.900391%)" stop-opacity="1"/>
<stop offset="0.5" stop-color="rgb(62.176514%, 41.468811%, 72.819519%)" stop-opacity="1"/>
<stop offset="0.515625" stop-color="rgb(62.387085%, 41.471863%, 72.738647%)" stop-opacity="1"/>
<stop offset="0.53125" stop-color="rgb(62.597656%, 41.47644%, 72.657776%)" stop-opacity="1"/>
<stop offset="0.546875" stop-color="rgb(62.806702%, 41.481018%, 72.57843%)" stop-opacity="1"/>
<stop offset="0.5625" stop-color="rgb(63.017273%, 41.48407%, 72.497559%)" stop-opacity="1"/>
<stop offset="0.578125" stop-color="rgb(63.226318%, 41.488647%, 72.416687%)" stop-opacity="1"/>
<stop offset="0.59375" stop-color="rgb(63.43689%, 41.493225%, 72.335815%)" stop-opacity="1"/>
<stop offset="0.609375" stop-color="rgb(63.645935%, 41.496277%, 72.254944%)" stop-opacity="1"/>
<stop offset="0.625" stop-color="rgb(63.856506%, 41.500854%, 72.174072%)" stop-opacity="1"/>
<stop offset="0.640625" stop-color="rgb(64.065552%, 41.503906%, 72.093201%)" stop-opacity="1"/>
<stop offset="0.65625" stop-color="rgb(64.276123%, 41.508484%, 72.013855%)" stop-opacity="1"/>
<stop offset="0.671875" stop-color="rgb(64.486694%, 41.513062%, 71.932983%)" stop-opacity="1"/>
<stop offset="0.6875" stop-color="rgb(64.69574%, 41.516113%, 71.852112%)" stop-opacity="1"/>
<stop offset="0.703125" stop-color="rgb(64.906311%, 41.520691%, 71.77124%)" stop-opacity="1"/>
<stop offset="0.71875" stop-color="rgb(65.115356%, 41.525269%, 71.690369%)" stop-opacity="1"/>
<stop offset="0.734375" stop-color="rgb(65.325928%, 41.52832%, 71.609497%)" stop-opacity="1"/>
<stop offset="0.75" stop-color="rgb(65.534973%, 41.532898%, 71.528625%)" stop-opacity="1"/>
<stop offset="0.765625" stop-color="rgb(65.745544%, 41.53595%, 71.44928%)" stop-opacity="1"/>
<stop offset="0.78125" stop-color="rgb(65.95459%, 41.540527%, 71.368408%)" stop-opacity="1"/>
<stop offset="0.796875" stop-color="rgb(66.165161%, 41.545105%, 71.287537%)" stop-opacity="1"/>
<stop offset="0.8125" stop-color="rgb(66.375732%, 41.548157%, 71.206665%)" stop-opacity="1"/>
<stop offset="0.828125" stop-color="rgb(66.584778%, 41.552734%, 71.125793%)" stop-opacity="1"/>
<stop offset="0.84375" stop-color="rgb(66.795349%, 41.557312%, 71.044922%)" stop-opacity="1"/>
<stop offset="0.859375" stop-color="rgb(67.004395%, 41.560364%, 70.96405%)" stop-opacity="1"/>
<stop offset="0.875" stop-color="rgb(67.214966%, 41.564941%, 70.884705%)" stop-opacity="1"/>
<stop offset="0.890625" stop-color="rgb(67.424011%, 41.567993%, 70.803833%)" stop-opacity="1"/>
<stop offset="0.90625" stop-color="rgb(67.634583%, 41.572571%, 70.722961%)" stop-opacity="1"/>
<stop offset="0.921875" stop-color="rgb(67.845154%, 41.577148%, 70.64209%)" stop-opacity="1"/>
<stop offset="0.9375" stop-color="rgb(68.054199%, 41.5802%, 70.561218%)" stop-opacity="1"/>
<stop offset="0.953125" stop-color="rgb(68.264771%, 41.584778%, 70.480347%)" stop-opacity="1"/>
<stop offset="0.96875" stop-color="rgb(68.473816%, 41.589355%, 70.399475%)" stop-opacity="1"/>
<stop offset="0.984375" stop-color="rgb(68.684387%, 41.592407%, 70.320129%)" stop-opacity="1"/>
<stop offset="1" stop-color="rgb(68.893433%, 41.596985%, 70.239258%)" stop-opacity="1"/>
</linearGradient>
</defs>
<g clip-path="url(#clip-0)">
<g clip-path="url(#clip-1)">
<path fill-rule="nonzero" fill="url(#linear-pattern-0)" d="M 85.824219 146.425781 L 85.824219 282.667969 L 154.273438 282.667969 L 154.273438 146.425781 Z M 85.824219 146.425781 "/>
</g>
</g>
<g clip-path="url(#clip-2)">
<g clip-path="url(#clip-3)">
<path fill-rule="nonzero" fill="url(#linear-pattern-1)" d="M 162.988281 146.425781 L 162.988281 282.667969 L 225.628906 282.667969 L 225.628906 146.425781 Z M 162.988281 146.425781 "/>
</g>
</g>
<g clip-path="url(#clip-4)">
<g clip-path="url(#clip-5)">
<path fill-rule="nonzero" fill="url(#linear-pattern-2)" d="M 234.707031 146.425781 L 234.707031 282.488281 L 296.984375 282.488281 L 296.984375 146.425781 Z M 234.707031 146.425781 "/>
</g>
</g>
<g clip-path="url(#clip-6)">
<g clip-path="url(#clip-7)">
<path fill-rule="nonzero" fill="url(#linear-pattern-3)" d="M 311.507812 146.425781 L 311.507812 282.667969 L 373.785156 282.667969 L 373.785156 146.425781 Z M 311.507812 146.425781 "/>
</g>
</g>
<g clip-path="url(#clip-8)">
<g clip-path="url(#clip-9)">
<path fill-rule="nonzero" fill="url(#linear-pattern-4)" d="M 384.816406 144.082031 L 384.816406 282.667969 L 525.675781 282.667969 L 525.675781 144.082031 Z M 384.816406 144.082031 "/>
</g>
</g>
</svg>
