<svg xmlns:mydata="http://www.w3.org/2000/svg" mydata:contrastcolor="151f42" mydata:template="Contrast" mydata:presentation="2.5" mydata:layouttype="undefined" mydata:specialfontid="undefined" mydata:id1="352" mydata:id2="684" mydata:companyname="xcurx" mydata:companytagline="" version="1.1" xmlns="http://www.w3.org/2000/svg" xmlns:xlink="http://www.w3.org/1999/xlink" viewBox="0 45 550 380"><defs><linearGradient x1="73.62748" y1="235" x2="476.37252" y2="235" gradientUnits="userSpaceOnUse" id="color-13000930102"><stop offset="0" stop-color="#4568dc"></stop><stop offset="1" stop-color="#b06ab3"></stop></linearGradient></defs><g fill="url(#color-13000930102)" fill-rule="nonzero" stroke="none" stroke-width="1" stroke-linecap="butt" stroke-linejoin="miter" stroke-miterlimit="10" stroke-dasharray="" stroke-dashoffset="0" font-family="none" font-weight="none" font-size="none" text-anchor="none" style="mix-blend-mode: normal"><g data-paper-data="{&quot;isGlobalGroup&quot;:true,&quot;bounds&quot;:{&quot;x&quot;:73.62748201330146,&quot;y&quot;:171.51211380333268,&quot;width&quot;:402.7450359733971,&quot;height&quot;:126.97577239333464}}"><g data-paper-data="{&quot;isPrimaryText&quot;:true}"><path d="M103.46159,255.71388c0.49931,-1.66436 1.66436,-1.66436 2.3301,0l15.97784,39.9446c0.66574,1.49792 2.66297,2.82941 4.32733,2.82941h7.15674c1.83079,0 2.66297,-1.33149 1.99723,-2.82941l-22.80171,-56.75461c-0.66574,-1.49792 -0.66574,-4.1609 0,-5.65882l22.80171,-56.75461c0.66574,-1.49792 -0.16644,-2.82941 -1.99723,-2.82941h-7.15674c-1.66436,0 -3.66159,1.33149 -4.32733,2.82941l-15.97784,39.9446c-0.66574,1.66436 -1.83079,1.66436 -2.3301,0l-16.14427,-39.9446c-0.66574,-1.49792 -2.49654,-2.82941 -4.32733,-2.82941h-7.15674c-1.66436,0 -2.66297,1.33149 -1.99723,2.82941l22.80171,56.75461c0.66574,1.49792 0.66574,4.1609 0,5.65882l-22.80171,56.75461c-0.66574,1.49792 0.33287,2.82941 1.99723,2.82941h7.15674c1.83079,0 3.66159,-1.33149 4.32733,-2.82941z" data-paper-data="{&quot;glyphName&quot;:&quot;X&quot;,&quot;glyphIndex&quot;:0,&quot;firstGlyphOfWord&quot;:true,&quot;word&quot;:1}"></path><path d="M153.2259,173.66103c-1.66436,0 -3.99446,0.99861 -5.32595,2.16367l-1.83079,1.83079c-1.16505,1.16505 -2.16367,3.66159 -2.16367,5.32595v106.18605c0,1.66436 0.99861,3.99446 2.16367,5.32595l1.83079,1.83079c1.33149,1.16505 3.66159,2.16367 5.32595,2.16367h38.77954c1.66436,0 3.99446,-0.99861 5.32595,-2.16367l1.83079,-1.83079c1.16505,-1.33149 2.16367,-3.66159 2.16367,-5.32595v-8.65466c0,-1.66436 -1.33149,-2.99584 -3.16228,-2.99584h-6.15813c-1.66436,0 -3.16228,1.33149 -3.16228,2.99584v2.3301c0,1.83079 -1.33149,3.16228 -3.16228,3.16228h-26.13042c-1.83079,0 -3.16228,-1.33149 -3.16228,-3.16228v-93.53693c0,-1.83079 1.33149,-3.16228 3.16228,-3.16228h26.13042c1.83079,0 3.16228,1.33149 3.16228,3.16228v1.83079c0,1.66436 1.49792,2.99584 3.16228,2.99584h6.15813c1.83079,0 3.16228,-1.33149 3.16228,-2.99584v-8.15535c0,-1.66436 -0.99861,-4.1609 -2.16367,-5.32595l-1.83079,-1.83079c-1.33149,-1.16505 -3.66159,-2.16367 -5.32595,-2.16367z" data-paper-data="{&quot;glyphName&quot;:&quot;C&quot;,&quot;glyphIndex&quot;:1,&quot;word&quot;:1}"></path><path d="M254.41887,251.22012c0,1.83079 -1.49792,3.16228 -3.16228,3.16228h-26.13042c-1.66436,0 -2.99584,-1.33149 -2.99584,-3.16228v-74.39681c0,-1.83079 -1.49792,-3.16228 -3.16228,-3.16228h-6.15813c-1.83079,0 -3.16228,1.33149 -3.16228,3.16228v80.72137c0,1.66436 0.99861,3.99446 2.16367,5.15951l1.83079,1.99723c1.16505,1.16505 3.66159,2.16367 5.32595,2.16367h38.44667c1.83079,0 4.1609,-0.99861 5.32595,-2.16367l1.83079,-1.99723c1.16505,-1.16505 2.16367,-3.49515 2.16367,-5.15951v-80.72137c0,-1.83079 -1.33149,-3.16228 -2.99584,-3.16228h-6.32456c-1.66436,0 -2.99584,1.33149 -2.99584,3.16228zM209.64764,295.15917c0,1.66436 1.33149,3.16228 3.16228,3.16228h50.92936c1.66436,0 2.99584,-1.49792 2.99584,-3.16228v-6.15813c0,-1.83079 -1.33149,-3.16228 -2.99584,-3.16228h-50.92936c-1.83079,0 -3.16228,1.33149 -3.16228,3.16228z" data-paper-data="{&quot;glyphName&quot;:&quot;special;U.001&quot;,&quot;glyphIndex&quot;:2,&quot;word&quot;:1}"></path><path d="M321.4925,253.88309c1.83079,0 3.16228,1.33149 3.16228,2.99584v38.44667c0,1.83079 1.33149,3.16228 3.16228,3.16228h6.15813c1.83079,0 3.16228,-1.33149 3.16228,-3.16228v-44.6048c0,-1.66436 -0.99861,-4.1609 -2.16367,-5.32595l-1.83079,-1.83079c-1.16505,-1.16505 -3.66159,-2.16367 -5.32595,-2.16367h-0.16644c-1.66436,0 -2.82941,-1.49792 -2.49654,-3.16228l11.1512,-54.09164c0.49931,-1.66436 -0.16644,-3.99446 -1.16505,-5.32595l-2.3301,-2.66297c-0.99861,-1.33149 -3.32872,-2.49654 -4.99307,-2.49654h-38.44667c-1.66436,0 -3.99446,0.99861 -5.32595,2.16367l-1.83079,1.83079c-1.16505,1.16505 -2.16367,3.66159 -2.16367,5.32595v55.25669c0,1.66436 0,4.49377 0,6.15813v6.32456c0,1.66436 0,4.49377 0,6.15813v38.44667c0,1.83079 1.33149,3.16228 3.16228,3.16228h6.15813c1.66436,0 3.16228,-1.33149 3.16228,-3.16228v-38.44667c0,-1.66436 1.33149,-2.99584 3.16228,-2.99584zM292.53267,189.30599c0,-1.83079 1.33149,-3.16228 3.16228,-3.16228h24.46606c1.66436,0 2.82941,1.33149 2.49654,2.99584l-10.15258,49.09856c-0.49931,1.66436 -2.16367,3.16228 -3.82802,3.16228h-12.98199c-1.83079,0 -3.16228,-1.49792 -3.16228,-3.16228z" data-paper-data="{&quot;glyphName&quot;:&quot;R&quot;,&quot;glyphIndex&quot;:3,&quot;word&quot;:1}"></path><g data-paper-data="{&quot;initialText&quot;:&quot;X&quot;,&quot;fillRule&quot;:&quot;nonzero&quot;,&quot;selectedEffects&quot;:{&quot;container&quot;:&quot;enclosed_circle_outline3&quot;,&quot;transformation&quot;:&quot;&quot;,&quot;pattern&quot;:&quot;&quot;},&quot;blockLetter&quot;:&quot;O&quot;,&quot;blockLetterId&quot;:0,&quot;relativeBoundsIconToContainer&quot;:{&quot;top&quot;:0.008461901572235843,&quot;left&quot;:-0.00019705416214463333},&quot;widthRatioIconToContainer&quot;:0.47900310481696773,&quot;heightRatioIconToContainer&quot;:0.9830761968555283,&quot;bounds&quot;:{&quot;x&quot;:347.2479578558755,&quot;y&quot;:171.51211380333268,&quot;width&quot;:129.12456013082306,&quot;height&quot;:126.97577239333464},&quot;isIcon&quot;:&quot;true&quot;,&quot;iconType&quot;:&quot;initial&quot;,&quot;iconStyle&quot;:&quot;icon-in-text&quot;,&quot;rawInitialId&quot;:352,&quot;line&quot;:1,&quot;iconInPrimaryText&quot;:true,&quot;suitableAsStandaloneIcon&quot;:true}"><path d="M394.5491,295.65848c-0.66574,1.49792 -2.49654,2.82941 -4.32733,2.82941h-7.15674c-1.66436,0 -2.66297,-1.33149 -1.99723,-2.82941l22.80171,-56.75461c0.66574,-1.49792 0.66574,-4.1609 0,-5.65882l-22.80171,-56.75461c-0.66574,-1.49792 0.33287,-2.82941 1.99723,-2.82941h7.15674c1.83079,0 3.66159,1.33149 4.32733,2.82941l16.14428,39.94459c0.49931,1.66436 1.66436,1.66436 2.3301,0l15.97784,-39.94459c0.66574,-1.49792 2.66297,-2.82941 4.32733,-2.82941h7.15674c1.83079,0 2.66297,1.33149 1.99723,2.82941l-22.80171,56.75461c-0.66574,1.49792 -0.66574,4.1609 0,5.65882l22.80171,56.75461c0.66574,1.49792 -0.16644,2.82941 -1.99723,2.82941h-7.15674c-1.66436,0 -3.66159,-1.33149 -4.32733,-2.82941l-15.97784,-39.94459c-0.66574,-1.66436 -1.83079,-1.66436 -2.3301,0zM366.15784,190.42198c3.81613,-3.81613 7.99515,-7.08035 12.53707,-9.79264l1.3644,3.39605l0.51217,1.2748c-3.93354,2.42127 -7.56751,5.29911 -10.9019,8.63351c-5.49971,5.49971 -9.75735,11.81439 -12.77292,18.94404c-3.12155,7.38019 -4.68233,15.11242 -4.68233,23.19671c0,8.08418 1.56078,15.81636 4.68233,23.19655c3.01557,7.12983 7.27321,13.44447 12.77292,18.94394c3.33438,3.33447 6.96834,6.21236 10.90188,8.6337l-1.87659,4.67097c-4.54189,-2.71225 -8.7209,-5.97643 -12.53701,-9.79252c-5.95631,-5.95628 -10.56805,-12.79679 -13.83523,-20.52153c-3.38311,-7.99848 -5.07467,-16.37551 -5.07467,-25.1311c0,-8.75569 1.69156,-17.13282 5.07467,-25.13137c3.26717,-7.72443 7.87891,-14.5648 13.83523,-20.52111zM411.81032,171.51211c5.09728,0 10.06625,0.5733 14.9069,1.7199l-0.42221,0.51734l-0.41788,0.63382l-0.19505,0.37342l-0.15776,0.34305l-1.08389,2.70974c-4.10997,-0.88729 -8.32001,-1.33093 -12.63012,-1.33093c-4.32906,0 -8.55716,0.44755 -12.68431,1.34266l-1.10496,-2.73392l-0.3254,-0.62723l-0.67444,-1.04512l-0.14853,-0.17554c4.85036,-1.15146 9.82958,-1.72718 14.93765,-1.72718zM457.46258,190.42198c5.95663,5.95631 10.5685,12.79668 13.83559,20.52111c3.3829,7.99855 5.07434,16.37567 5.07434,25.13137c0,8.75559 -1.69145,17.13262 -5.07434,25.1311c-3.2671,7.72475 -7.87897,14.56526 -13.83559,20.52153c-3.83195,3.83195 -8.02979,7.10737 -12.59355,9.82628l-0.3077,-0.76598l-1.39593,-3.47444l-0.1726,-0.4296c3.95525,-2.42853 7.60797,-5.31801 10.95818,-8.66842c5.49982,-5.49947 9.75756,-11.81411 12.77324,-18.94394c3.12155,-7.38019 4.68233,-15.11237 4.68233,-23.19655c0,-8.08428 -1.56078,-15.81652 -4.68233,-23.19671c-3.01568,-7.12968 -7.27342,-13.44437 -12.77324,-18.94404c-3.35017,-3.3503 -7.00286,-6.23968 -10.95805,-8.66813l1.87606,-4.67c4.56379,2.71896 8.76166,5.99443 12.59362,9.82641z" data-paper-data="{&quot;isPathIcon&quot;:true}"></path></g></g></g></g></svg>